HIERARCHY
ROOT Hips
{
	OFFSET -14.64140 90.27770 -84.91600
	CHANNELS 6 Xposition Yposition Zposition Zrotation Xrotation Yrotation
	JOINT Spine
	{
		OFFSET 0.00000 13.20850 -1.60436
		CHANNELS 3 Zrotation Xrotation Yrotation
		JOINT Spine1
		{
			OFFSET 0.00000 8.61716 0.00000
			CHANNELS 3 Zrotation Xrotation Yrotation
			JOINT Spine2
			{
				OFFSET 0.00000 8.61717 0.00000
				CHANNELS 3 Zrotation Xrotation Yrotation
				JOINT Spine3
				{
					OFFSET 0.00000 8.61717 0.00000
					CHANNELS 3 Zrotation Xrotation Yrotation
					JOINT Neck
					{
						OFFSET 0.00000 11.07920 1.10792
						CHANNELS 3 Zrotation Xrotation Yrotation
						JOINT Neck1
						{
							OFFSET 0.00000 7.08032 0.00000
							CHANNELS 3 Zrotation Xrotation Yrotation
							JOINT Head
							{
								OFFSET 0.00000 7.08031 0.00000
								CHANNELS 3 Zrotation Xrotation Yrotation
								End site
								{
									OFFSET 0.00000 0.00000 0.00000
								}
							}
						}
					}
					JOINT RightShoulder
					{
						OFFSET -0.01000 7.91373 5.19711
						CHANNELS 3 Zrotation Xrotation Yrotation
						JOINT RightArm
						{
							OFFSET -18.41580 0.00000 0.00000
							CHANNELS 3 Zrotation Xrotation Yrotation
							JOINT RightForeArm
							{
								OFFSET -29.11090 0.00000 0.00000
								CHANNELS 3 Zrotation Xrotation Yrotation
								JOINT RightHand
								{
									OFFSET -24.65040 0.00000 0.00000
									CHANNELS 3 Zrotation Xrotation Yrotation
									JOINT RightHandThumb1
									{
										OFFSET -5.35114 -0.85590 3.97906
										CHANNELS 3 Zrotation Xrotation Yrotation
										JOINT RightHandThumb2
										{
											OFFSET -4.52789 0.00000 0.00000
											CHANNELS 3 Zrotation Xrotation Yrotation
											JOINT RightHandThumb3
											{
												OFFSET -2.46976 0.00000 0.00000
												CHANNELS 3 Zrotation Xrotation Yrotation
												End site
												{
													OFFSET 0.00000 0.00000 0.00000
												}
											}
										}
									}
									JOINT RightHandIndex1
									{
										OFFSET -14.26970 0.00000 2.88139
										CHANNELS 3 Zrotation Xrotation Yrotation
										JOINT RightHandIndex2
										{
											OFFSET -5.48836 0.00000 0.00000
											CHANNELS 3 Zrotation Xrotation Yrotation
											JOINT RightHandIndex3
											{
												OFFSET -3.01859 0.00000 0.00000
												CHANNELS 3 Zrotation Xrotation Yrotation
												End site
												{
													OFFSET 0.00000 0.00000 0.00000
												}
											}
										}
									}
									JOINT RightHandMiddle1
									{
										OFFSET -14.26970 0.00000 -0.09147
										CHANNELS 3 Zrotation Xrotation Yrotation
										JOINT RightHandMiddle2
										{
											OFFSET -6.17441 0.00000 0.00000
											CHANNELS 3 Zrotation Xrotation Yrotation
											JOINT RightHandMiddle3
											{
												OFFSET -3.56743 0.00000 0.00000
												CHANNELS 3 Zrotation Xrotation Yrotation
												End site
												{
													OFFSET 0.00000 0.00000 0.00000
												}
											}
										}
									}
									JOINT RightHandRing1
									{
										OFFSET -12.69180 0.00000 -3.06433
										CHANNELS 3 Zrotation Xrotation Yrotation
										JOINT RightHandRing2
										{
											OFFSET -5.62556 0.00000 0.00000
											CHANNELS 3 Zrotation Xrotation Yrotation
											JOINT RightHandRing3
											{
												OFFSET -3.56744 0.00000 0.00000
												CHANNELS 3 Zrotation Xrotation Yrotation
												End site
												{
													OFFSET 0.00000 0.00000 0.00000
												}
											}
										}
									}
									JOINT RightHandPinky1
									{
										OFFSET -11.11390 0.00000 -6.03719
										CHANNELS 3 Zrotation Xrotation Yrotation
										JOINT RightHandPinky2
										{
											OFFSET -4.52789 0.00000 0.00000
											CHANNELS 3 Zrotation Xrotation Yrotation
											JOINT RightHandPinky3
											{
												OFFSET -2.46976 0.00000 0.00000
												CHANNELS 3 Zrotation Xrotation Yrotation
												End site
												{
													OFFSET 0.00000 0.00000 0.00000
												}
											}
										}
									}
								}
							}
						}
					}
					JOINT LeftShoulder
					{
						OFFSET 0.01000 7.91373 5.19711
						CHANNELS 3 Zrotation Xrotation Yrotation
						JOINT LeftArm
						{
							OFFSET 18.41580 0.00000 0.00000
							CHANNELS 3 Zrotation Xrotation Yrotation
							JOINT LeftForeArm
							{
								OFFSET 29.11090 0.00000 0.00000
								CHANNELS 3 Zrotation Xrotation Yrotation
								JOINT LeftHand
								{
									OFFSET 24.65040 0.00000 0.00000
									CHANNELS 3 Zrotation Xrotation Yrotation
									JOINT LeftHandThumb1
									{
										OFFSET 5.35114 -0.85590 3.97906
										CHANNELS 3 Zrotation Xrotation Yrotation
										JOINT LeftHandThumb2
										{
											OFFSET 4.52789 0.00000 0.00000
											CHANNELS 3 Zrotation Xrotation Yrotation
											JOINT LeftHandThumb3
											{
												OFFSET 2.46977 0.00000 0.00000
												CHANNELS 3 Zrotation Xrotation Yrotation
												End site
												{
													OFFSET 0.00000 0.00000 0.00000
												}
											}
										}
									}
									JOINT LeftHandIndex1
									{
										OFFSET 14.26970 0.00000 2.88139
										CHANNELS 3 Zrotation Xrotation Yrotation
										JOINT LeftHandIndex2
										{
											OFFSET 5.48836 0.00000 0.00000
											CHANNELS 3 Zrotation Xrotation Yrotation
											JOINT LeftHandIndex3
											{
												OFFSET 3.01859 0.00000 0.00000
												CHANNELS 3 Zrotation Xrotation Yrotation
												End site
												{
													OFFSET 0.00000 0.00000 0.00000
												}
											}
										}
									}
									JOINT LeftHandMiddle1
									{
										OFFSET 14.26970 0.00000 -0.09147
										CHANNELS 3 Zrotation Xrotation Yrotation
										JOINT LeftHandMiddle2
										{
											OFFSET 6.17440 0.00000 0.00000
											CHANNELS 3 Zrotation Xrotation Yrotation
											JOINT LeftHandMiddle3
											{
												OFFSET 3.56744 0.00000 0.00000
												CHANNELS 3 Zrotation Xrotation Yrotation
												End site
												{
													OFFSET 0.00000 0.00000 0.00000
												}
											}
										}
									}
									JOINT LeftHandRing1
									{
										OFFSET 12.69180 0.00000 -3.06433
										CHANNELS 3 Zrotation Xrotation Yrotation
										JOINT LeftHandRing2
										{
											OFFSET 5.62556 0.00000 0.00000
											CHANNELS 3 Zrotation Xrotation Yrotation
											JOINT LeftHandRing3
											{
												OFFSET 3.56744 0.00000 0.00000
												CHANNELS 3 Zrotation Xrotation Yrotation
												End site
												{
													OFFSET 0.00000 0.00000 0.00000
												}
											}
										}
									}
									JOINT LeftHandPinky1
									{
										OFFSET 11.11390 0.00000 -6.03719
										CHANNELS 3 Zrotation Xrotation Yrotation
										JOINT LeftHandPinky2
										{
											OFFSET 4.52789 0.00000 0.00000
											CHANNELS 3 Zrotation Xrotation Yrotation
											JOINT LeftHandPinky3
											{
												OFFSET 2.46976 0.00000 0.00000
												CHANNELS 3 Zrotation Xrotation Yrotation
												End site
												{
													OFFSET 0.00000 0.00000 0.00000
												}
											}
										}
									}
								}
							}
						}
					}
					JOINT pCube4
					{
						OFFSET 0.00000 10.91090 1.10792
						CHANNELS 3 Zrotation Xrotation Yrotation
						End site
						{
							OFFSET 0.00000 0.00000 0.00000
						}
					}
				}
			}
		}
	}
	JOINT RightUpLeg
	{
		OFFSET -9.98441 0.00000 0.00000
		CHANNELS 3 Zrotation Xrotation Yrotation
		JOINT RightLeg
		{
			OFFSET 0.00000 -42.11790 0.00000
			CHANNELS 3 Zrotation Xrotation Yrotation
			JOINT RightFoot
			{
				OFFSET 0.00000 -45.00020 -0.00001
				CHANNELS 3 Zrotation Xrotation Yrotation
				JOINT RightForeFoot
				{
					OFFSET 0.00000 -3.74820 0.00000
					CHANNELS 3 Zrotation Xrotation Yrotation
					JOINT RightToeBase
					{
						OFFSET 0.00000 0.06325 14.43120
						CHANNELS 3 Zrotation Xrotation Yrotation
						End site
						{
							OFFSET 0.00000 0.00000 0.00000
						}
					}
				}
			}
		}
	}
	JOINT LeftUpLeg
	{
		OFFSET 9.98441 0.00000 0.00000
		CHANNELS 3 Zrotation Xrotation Yrotation
		JOINT LeftLeg
		{
			OFFSET 0.00000 -42.11800 0.00000
			CHANNELS 3 Zrotation Xrotation Yrotation
			JOINT LeftFoot
			{
				OFFSET 0.00000 -45.00070 0.00000
				CHANNELS 3 Zrotation Xrotation Yrotation
				JOINT LeftForeFoot
				{
					OFFSET 0.00000 -3.74824 0.00000
					CHANNELS 3 Zrotation Xrotation Yrotation
					JOINT LeftToeBase
					{
						OFFSET 0.00000 0.06325 14.43110
						CHANNELS 3 Zrotation Xrotation Yrotation
						End site
						{
							OFFSET 0.00000 0.00000 0.00000
						}
					}
				}
			}
		}
	}
}
MOTION
Frames: 4
Frame Time: 0.050000
-0.03170154732023515 0.008404435794662364 0.02204366184788052 0.03340198562702189 -0.0011556156792728778 -0.02220562750553002 -3.4113729378529682 -0.6789401131243005 -0.7981165860759883 -0.890037141322317 3.567817005457343 0.34551580412630983 -1.1630625473365028 -2.0727650620632336 -1.4829734026888899 -0.18969753772482384 0.22121490927041032 -0.863341619966396 -0.35153758690778963 12.174121943219491 0.993634318637581 0.29395788546085677 0.29451442977126796 1.3542403622213555 0.012736772527012502 -14.326439070845096 0.15286179264712224 -3.442189148519207 1.4641434940600175 -14.274574521134449 73.15430767500521 26.00153661660849 3.2790124614910403 35.31333271772762 6.610751109670837 87.21593888166267 23.259154815746918 -0.3166353521074206 -3.8594683883792267 4.566487698079542 -0.14404174416282184 -1.6201733350473968 0.048497581375328086 -0.00980990881361614 -56.218042387212634 0.04607378777424188 -0.019333095020299968 -56.25596461688734 -38.81340517637585 0.02883411945000256 -0.011658447585247027 -0.02189258062068311 0.039914138621392946 -0.005556927992846285 -0.031723067837313504 -0.03683864624711737 0.0037327457252283717 -36.73102973131644 0.012330203778615267 0.044768287735208995 0.027047215310432703 0.004846264573703629 0.0279143331380958 -0.01809134875278592 0.001795443730012287 0.010692332985228665 -19.729866569993433 0.04412337066781544 -0.014580183760269714 -0.009643888277843052 -0.04220759520889612 0.017286951377625037 0.04110372233130388 0.029758626169663387 0.04589590584447554 24.022445858620284 -0.03463088253871501 0.0047819554718516975 28.899066319473086 0.0277766818296059 -0.025471256854346876 28.879741216812878 0.01170193974093742 0.042851596867701194 6.150453042383174 1.4612555796058417 12.401052189272754 -73.64190984288742 25.04366490786521 -8.187633632618446 -92.66321277808159 9.477590129288082 -106.70137145061197 -20.286025298079057 -1.5981824998804 0.7392568520322075 -0.456606257854273 0.026462541289788956 -8.11507005909558 -0.04838566070895404 0.007345259472100818 44.575019665830496 -0.03745409457384222 -0.009508992411587097 44.54166477739197 12.455187773465036 0.019056302862148235 -0.008627835092343702 0.005200084937803472 -0.013726452001253874 -0.030502015348424547 0.01718052187520752 -0.026999337630562094 -0.037690528467902766 11.111463044285603 -0.04079961933089839 -0.0019605347092981605 0.04659085055248036 -0.03249111086663182 0.007086249736969014 -0.046842236715243124 0.004667503356260649 -0.03625479785616049 4.733907166806414 0.01636865345471444 0.025564218004905683 0.04984725967137386 0.02935283083195055 -0.042970927674626506 0.015107499686220719 0.012581654893836431 -0.041625237851181454 -5.645366102553289 0.04394032432287011 0.03259944595028064 -6.7022033196468875 0.0073975499942499105 -0.03677541470049067 -6.717456067754697 -0.004938014097248389 -0.03520974281275707 -0.03233312004367101 -0.011909488107916345 -0.001664715098204094 8.007459363260072 3.4684163873702576 -19.246721455553295 -0.0354440495532684 10.38624338152185 -0.030989136241908726 -5.580016907180186 -15.646732473479075 3.183983299359887 -0.02560467468223985 0.02111283010525791 -0.03444068998718241 -0.01327231985635187 4.745968487220819 0.009906665777353994 12.4601081611598 -8.201444014683938 6.903093409219863 0.004474291725157797 46.41799330273408 -0.0061943092617056175 -4.349230861404244 -14.734003649027297 -3.8558420008129186 -0.012650991628097697 -0.04576489130727721 -0.02691568559500857 -0.015339210772752545 -10.761894658421895 0.03191039792591776 
-0.02245099400126937 -0.02190733721192406 -0.03965826304532882 0.035065321230992534 -0.011009636364139208 0.030425383225990123 -3.3375272628662036 -0.6618266616288396 -0.8591597008932808 -0.9059563513869454 3.577736562072869 0.371746408316574 -1.1687438856749224 -2.0636795076029806 -1.5179666967774286 -0.1767094188765814 0.2913176096681353 -0.8818939962481268 -0.36716230546262335 12.207993122389713 1.1385060391157535 0.18319274624670828 0.35024218465054896 1.730370369329426 -0.13959452896509147 -14.142069641504733 0.13122933063229464 -3.390211959933415 1.4595085095018299 -14.335777262530675 72.72473709883293 25.517311739177874 3.67367206496781 36.159353755293 5.427961089484276 90.86281241165081 22.21355385143658 -0.33600735402415327 -3.7058243151156227 4.495480722172628 -0.14306227744031763 -1.642368149988248 0.006185267059591659 0.016697344721202618 -56.23145534908301 -0.019510671728663727 -0.04406277205618554 -56.23455498514922 -38.80228669579947 0.036557072484388976 -0.003152556212402175 0.027038284102161705 0.007825746781244447 0.02489358464132083 0.005200049035291131 -0.0011105171601326533 -0.014271180012584626 -36.6608558470679 -0.02374876819812559 0.005065837762895443 -0.0058415283287027095 -0.03604543728512633 -0.011061926662490739 0.022478820523986733 -0.03332847761570335 -0.00756698794914923 -19.78429393916349 0.035482160573382666 0.002457433854982293 0.008211048427200104 -0.009760749774682349 -0.01751010996731571 -0.0026036425541058335 0.005854347968712967 0.003063613267999295 24.054792589660494 -0.023950367122798064 0.019995918213988547 28.879092767198575 0.016019768976059105 -0.029325417365167368 28.855441120538273 0.008781714619284134 -0.0018381168686540607 6.071294490483422 1.408775356829149 12.342910548647614 -73.42476570741988 25.423024118036214 -7.994618977241706 -90.94275545494672 8.884958056273732 -105.60669850331253 -19.1376059871618 -0.7511502409915102 0.17460032620578214 -0.46488527385852885 0.09343126339949025 -8.163394989643743 -0.008349456964152643 0.029094909184581182 44.61363070982096 -0.046451131442453865 -0.017058788202375844 44.543467013337235 12.43719856728402 0.033476227177835764 -0.006618947241646556 -0.02315438758336486 -0.013745362766791192 -0.018449145741050953 -0.032007307087583425 -0.010725909803509973 0.014272731832883419 11.12688528915879 0.040698105950909294 -0.02490424729594256 -0.0007752041486207016 -0.04414177608752419 0.0173585416069871 0.01165055168609184 -0.005814028244888364 -0.024604366092297745 4.748672873390263 0.0016324910783087863 -0.012950066596633324 -0.025897701946944723 0.02979238407925347 0.004393217513140234 -0.006933972623546302 0.023738786600349907 0.02217282525966035 -5.624455591406969 0.019937249425887545 -0.020276365851313535 -6.704860317846808 -0.03604026642905602 0.01964823068441426 -6.7165391191541195 -0.0025726768055312813 -0.04719459201447978 0.0023917572309681153 8.656461141686955e-05 0.04983400708159304 8.04919315550019 3.4749969108904004 -19.240483309598112 -0.015027228779795232 10.379293232546352 0.06252269009135085 -5.650431507289361 -15.651038226317517 3.1948825989531944 0.04371269570042916 0.03407628467681936 -0.04612890544783283 0.02026575690275129 4.719072626687155 0.0447471591172523 12.472749626007554 -8.220535510525854 6.922016527932494 -0.03649602101582311 46.37164497668707 0.020847913008909116 -4.355026261963577 -14.705736396019871 -3.8474126640159594 0.02318184582504317 -0.029010809036720632 0.03485599676779205 -0.009060541172005023 -10.772275593480655 -0.018049362715997243 
0.012453118428948909 -0.02231236139845562 -0.01905814418734742 -0.034125688697408355 -0.009918713458959968 -0.027862536214263114 -3.2826040156413225 -0.6559163415446492 -0.8116497356677459 -0.9259970953799553 3.55874025339264 0.38874078778725674 -1.184135630267958 -2.0286480053623652 -1.500786796268384 -0.20231806643718633 0.3253166470882242 -0.8355277809572423 -0.3661196271529058 12.322019211261566 1.2862508663555643 0.20465504128691508 0.4933069418747461 2.0258735386733764 -0.1319199826933937 -13.96255901118911 0.22553784963685106 -3.358123837615241 1.3733998185939797 -14.369603288921144 72.30536863653812 25.261696266743186 3.825371931902742 35.65942634819364 4.499645939826518 92.95937193889554 21.30249361137751 -0.3182280558624227 -3.64609941045496 4.522598348709696 -0.14222909192116334 -1.5532443826633935 0.0038828462898846446 0.006201710157544796 -56.27976615281045 -0.03898437126976089 -0.03329341854940475 -56.238038633616824 -38.746335732431135 0.013121989040737485 -0.004926648207185281 0.03883199432970001 0.0483207204789422 -0.028941353277562632 0.027434919633929904 -0.007619368671114163 -0.038009195453405475 -36.72562104266778 -0.010890456575028493 -0.04707311914927058 -0.03689255299706456 0.03911027426677704 0.011923378271756676 0.046072464108288046 -0.04272910174816441 0.04909401527521105 -19.766710619473514 0.021278075490563014 -0.030895800313361713 -0.010355546857718789 0.007734896535694633 -0.004607792995373386 0.017839349288579782 0.04828363525416469 0.021467930840182673 24.10398942421503 -0.041720854454014786 0.037874700289146614 28.88456430017422 -0.025255822754148855 -0.03419919119887695 28.83901689929678 0.031010176321592343 0.005365044161163458 5.99605086975216 1.381034935531546 12.487679027755043 -73.04821559846629 25.55042988924871 -7.965370633316799 -86.41599412959324 8.971976257838115 -103.05240519129606 -17.45794403264008 -0.10979278371392509 -0.14458498207074594 -0.5082551179687201 0.09861140020130628 -8.095050465741727 -0.03418059954801874 -0.0491746717078831 44.51790881476001 -0.02827176250454084 0.02916977138955291 44.52985972721047 12.450011386010242 -0.009048223481476839 -0.03446814282853981 0.005534959461411222 -0.04426951599472246 -0.04404057406003914 -0.033138174331871835 0.0047293780130675854 0.03935879943194197 11.076610606064746 0.023284110651455633 -0.012354206214631224 0.006337754205307363 0.021101907919373414 -0.020053159683895854 0.04652614084179396 0.032709884234320766 -0.029808015818912265 4.813930121686645 0.030100787413393417 -0.012757023324708381 0.026340369901567046 -0.012360318888291921 0.0282277320144768 0.029192959611675617 0.005401585318217159 -0.023512768110094083 -5.574835692202203 0.010412930538679347 -0.036943594815237644 -6.672225827350987 -0.02106387153222122 0.04893600221497413 -6.719072808489935 -0.013279858668285975 0.014622273991245181 -0.00838362580523038 0.040239170734791205 0.04472228991538527 8.051827883376022 3.519630041879376 -19.221646161386218 -0.015247347678474998 10.418204348784787 -0.011589315756558784 -5.62216159786605 -15.617540575486402 3.222668264379293 -0.01434652927106264 0.029714639675331663 0.008730263889622638 -0.0036505281390996494 4.693513661262727 -0.03515137713949593 12.465313832797792 -8.258501819545645 6.8648263582343585 0.005274219908354584 46.35557818873791 0.020325582013298187 -4.331051019243522 -14.730392811233672 -3.85043450112872 -0.008552894670464568 -0.03846591919263528 0.02710449730350411 0.044634607474074155 -10.748910283765985 0.006485006981485379 
0.026484084824755123 0.01139233011901647 -0.037172230361086724 0.0075436707153123915 -0.023452408594221583 0.01936746175229602 -3.2014590187080976 -0.606731451518624 -0.7723040329136213 -0.90731363180831 3.5973142750622293 0.38404329165404033 -1.2265559642767252 -2.0157228704328407 -1.4699456459305595 -0.07562938690482097 0.3618048361365944 -0.8326710748826683 -0.39001442834419153 12.456725330737665 1.2959025438971392 0.2079572301925194 0.4705339752873582 2.0351764711301503 -0.24437412056744576 -13.899969965823933 0.1733939103888852 -3.4224963427778623 1.3815142731709964 -14.599058645547363 71.94499603030181 25.69936552310572 3.4393145385067414 33.71003796020632 4.191754330709397 92.87486384810354 20.5177237768351 -0.3055432688752112 -3.898308628895545 4.482624934206389 -0.1207585492387633 -1.6015742055346 0.002938212343872971 0.017245446979698403 -56.236846029131165 0.01569268220163519 -0.020110138667845848 -56.203463742164615 -38.76712157197104 -0.026719262771058662 -0.03415778581747766 -0.010445723430486572 0.03974839458942244 -0.049617038821180286 0.0445741882813009 -0.0019505144570477336 0.022606683079993528 -36.676900315326364 0.004105075734110391 -0.033740328068438394 0.03251043804652146 -0.04432989797013433 -0.04160882787681485 -0.03804143991925347 -0.01632136749383467 -0.003859282634319757 -19.7555934670335 -0.04081104597737971 0.010001967102862422 -0.035860413494642945 -0.02158471651979636 0.021726955611270454 0.03210103189716445 -0.010063673171142993 -0.018966470396123952 24.070275381282833 0.028508653510088286 0.03473812442395552 28.86104681041445 -0.04135950713150957 -0.015338535657154614 28.913114254795424 -0.001439682810076235 0.010758806846103097 5.9819334633529815 1.4163490996366677 12.761577511345326 -72.49953889647703 25.63149187081426 -7.585072047802831 -77.64550877330683 9.84936661178993 -97.6088380571145 -15.635488445990873 0.08286683922715612 -0.17198270775767643 -0.45921595669745335 0.05683950559678701 -8.151435485755195 0.04946304491180254 0.005828540416010941 44.56913103310339 -0.016606422419590212 0.0346438632702932 44.52492778653008 12.42665373526208 -0.033759593434696845 0.013794099984828261 0.019428892341886397 0.02907222585154106 -0.0013107799578382302 0.021148951059051287 0.0055599054871104826 -0.011064111684533355 11.124215359886772 0.04837979499154897 0.0010277102812109489 0.047130287597545804 -0.010303136736218955 0.013080851059148241 0.04184100262235716 0.024766993521891392 -0.011638021099176507 4.7785646461388085 -0.006101581181783047 -0.0351351490719535 -0.025677780874450266 0.007283928579813665 0.0445479087873926 0.02511516078031665 0.045699050070891506 -0.019262550166261813 -5.596639575208144 0.018921461100181544 -0.023515711886551164 -6.698472290583786 -0.012732032804486699 0.02238726919675433 -6.691071968163391 -0.03133279451446965 0.02108816880651732 0.04086091146708343 -0.0332669215712462 -0.037991209207939185 8.008050107302758 3.495897213147081 -19.20559623851754 -0.02369161919836337 10.427614027027781 0.0009934654605974237 -5.594123042480745 -15.705919800045926 3.239621899526868 -0.024635422058682233 -0.0012241214751150438 0.014624626978975456 -0.010201151091503775 4.7181028911271 -0.008468053444037723 12.470170975139036 -8.223404058405746 6.8372056136495125 0.030925949449019136 46.42909562062838 0.0030965514572846675 -4.3058003379801075 -14.78565239249435 -3.8225182099988397 -0.049044084946389246 0.0016248889132010934 -0.030826056283331828 0.030770318897548422 -10.710432068437704 -0.03953740483943928 
